<svg xmlns="http://www.w3.org/2000/svg" version="1.1" xmlns:xlink="http://www.w3.org/1999/xlink" xmlns:svgjs="http://svgjs.dev/svgjs" width="100%" height="100%" viewBox="0 0 1000 600"><rect width="1000" height="600" x="0" y="0" fill="#d2302c"/><g><rect width="333.3333333333333" height="333.3333333333333" rx="13.333333333333334" ry="13.333333333333334" y="220.4293591851748" fill="#f7f7f9" transform="matrix(0.6306535055368071,0,0,0.6306535055368071,0,55.87655183153643)" x="198.2072296142578"/><path d="M325.88061399028624 446.2488018723948L325.88061399028624 336.75063311304405Q325.88061399028624 332.14884533607164 326.3072698106678 327.72991005354845Q326.7339256310494 323.3414501867668 328.37959808109247 319.8672527922313Q330.05574594687715 316.3930553976958 333.2556645997388 314.2293008800465Q336.4860586683419 312.0960217781388 342.15448599626825 312.0960217781388L342.15448599626825 312.0960217781388Q348.2800445603176 312.0960217781388 351.69329112337005 314.2293008800465Q355.137013102164 316.3930553976958 356.72173472072404 319.8672527922313Q358.3369317550256 323.3414501867668 358.70263674392413 327.72991005354845Q359.0988171485641 332.14884533607164 359.0988171485641 336.75063311304405L359.0988171485641 336.75063311304405L359.0988171485641 430.58443818124357L380.0963785944847 430.58443818124357Q384.48483846126635 430.58443818124357 388.75139666508187 431.01109400162517Q393.0484302846389 431.46822523774824 396.4312014319498 433.05294685630827Q399.8139725792606 434.6681438906099 401.82535001820224 437.77663629624686Q403.86720287288534 440.8851287018839 403.86720287288534 446.2488018723948L403.86720287288534 446.2488018723948Q403.86720287288534 451.7039012901304 401.82535001820224 454.8733445272504Q399.8139725792606 458.01231234862894 396.4312014319498 459.62750938293055Q393.0484302846389 461.24270641723217 388.75139666508187 461.6693622376137Q384.48483846126635 462.09601805799525 380.0963785944847 462.09601805799525L380.0963785944847 462.09601805799525L349.6514382686869 462.09601805799525Q343.9830109407606 462.09601805799525 339.59455107397895 461.6693622376137Q335.2060912071973 461.24270641723217 332.1280742173018 459.62750938293055Q329.0805326431479 458.01231234862894 327.49581102458785 454.8733445272504Q325.88061399028624 451.7039012901304 325.88061399028624 446.2488018723948L325.88061399028624 446.2488018723948Z " fill="#d2302c" transform="matrix(0.6306535055368071,0,0,0.6306535055368071,0,55.87655183153643)"/><path d="M614.8739077564388 445.489961151035L614.8739077564388 336.61117327224713Q614.8739077564388 332.03541569648957 615.2981501806812 327.64147630255013Q615.7223926049237 323.2778399389138 617.3587562412873 319.8232944843684Q619.025422907954 316.3687490298229 622.2072410897722 314.21723387830775Q625.4193623018934 312.0960217570956 631.055725938257 312.0960217570956L631.055725938257 312.0960217570956Q637.1466350291662 312.0960217570956 640.5405744231055 314.21723387830775Q643.964816847348 316.3687490298229 645.5405744231055 319.8232944843684Q647.1466350291662 323.2778399389138 647.5102713928025 327.64147630255013Q647.9042107867419 332.03541569648957 647.9042107867419 336.61117327224713L647.9042107867419 336.61117327224713L647.9042107867419 429.91420357527744L668.7829986655297 429.91420357527744Q673.1466350291661 429.91420357527744 677.3890592715903 430.3384459995199Q681.6617865443177 430.7929914540653 685.025422907954 432.3687490298229Q688.3890592715903 433.9748096358835 690.3890592715903 437.06571872679257Q692.4193623018934 440.1566278177017 692.4193623018934 445.489961151035L692.4193623018934 445.489961151035Q692.4193623018934 450.9142035752775 690.3890592715903 454.0657187267926Q688.3890592715903 457.1869308480047 685.025422907954 458.7929914540653Q681.6617865443177 460.39905206012594 677.3890592715903 460.8232944843684Q673.1466350291661 461.24753690861075 668.7829986655297 461.24753690861075L668.7829986655297 461.24753690861075L638.5102713928025 461.24753690861075Q632.8739077564388 461.24753690861075 628.5102713928025 460.8232944843684Q624.1466350291662 460.39905206012594 621.0860289685601 458.7929914540653Q618.055725938257 457.1869308480047 616.4799683624994 454.0657187267926Q614.8739077564388 450.9142035752775 614.8739077564388 445.489961151035L614.8739077564388 445.489961151035ZM707.3284532109843 421.18693084800475L707.3284532109843 394.7626884237623Q707.3284532109843 384.9748096358835 709.995119877651 378.1566278177017Q712.6617865443177 371.3384459995199 716.8739077564388 366.7626884237623Q721.0860289685601 362.1566278177017 726.2375441200752 359.61117327224713Q731.4193623018934 357.06571872679257 736.4193623018934 355.7929914540653Q741.4193623018934 354.489961151035 745.7526956352267 354.18693084800475Q750.055725938257 353.8535975146714 752.5102713928025 353.8535975146714L752.5102713928025 353.8535975146714Q754.964816847348 353.8535975146714 759.2072410897722 354.18693084800475Q763.4799683624994 354.489961151035 768.3284532109843 355.7929914540653Q773.1769380594692 357.06571872679257 778.1163319988631 359.61117327224713Q783.0860289685601 362.1566278177017 787.0860289685601 366.7626884237623Q791.0860289685601 371.3384459995199 793.6314835140146 378.1566278177017Q796.1769380594692 384.9748096358835 796.1769380594692 394.7626884237623L796.1769380594692 394.7626884237623L796.1769380594692 421.18693084800475Q796.1769380594692 431.0051126661865 793.6314835140146 437.8232944843683Q791.0860289685601 444.64147630255013 787.0860289685601 449.21723387830775Q783.0860289685601 453.7929914540653 778.1163319988631 456.3384459995199Q773.1769380594692 458.91420357527744 768.3284532109843 460.18693084800475Q763.4799683624994 461.459658120732 759.2072410897722 461.7929914540653Q754.964816847348 462.0960217570956 752.5102713928025 462.0960217570956L752.5102713928025 462.0960217570956Q750.055725938257 462.0960217570956 745.7526956352267 461.7929914540653Q741.4193623018934 461.459658120732 736.4193623018934 460.18693084800475Q731.4193623018934 458.91420357527744 726.2375441200752 456.3384459995199Q721.0860289685601 453.7929914540653 716.8739077564388 449.21723387830775Q712.6617865443177 444.64147630255013 709.995119877651 437.8232944843683Q707.3284532109843 431.0051126661865 707.3284532109843 421.18693084800475L707.3284532109843 421.18693084800475ZM740.1466350291662 390.0960217570956L740.1466350291662 428.6414763025502Q740.2678471503782 431.73238539345925 741.6314835140147 434.0960217570956L741.6314835140147 434.0960217570956Q742.8133016958327 436.21723387830775 745.3284532109843 437.8535975146714Q747.8133016958328 439.52026418133806 752.5102713928025 439.52026418133806L752.5102713928025 439.52026418133806Q756.995119877651 439.52026418133806 759.3890592715904 437.8535975146714Q761.7829986655297 436.21723387830775 762.964816847348 434.0960217570956L762.964816847348 434.0960217570956Q764.2375441200752 431.73238539345925 764.4496653321964 428.6414763025502L764.4496653321964 428.6414763025502L764.4496653321964 390.0960217570956Q764.2375441200752 386.88390054497444 762.964816847348 384.21723387830775L762.964816847348 384.21723387830775Q761.7829986655297 382.0960217570956 759.3890592715904 380.21723387830775Q756.995119877651 378.3687490298229 752.5102713928025 378.3687490298229L752.5102713928025 378.3687490298229Q747.8133016958328 378.3687490298229 745.3284532109843 380.21723387830775Q742.8133016958327 382.0960217570956 741.6314835140147 384.21723387830775L741.6314835140147 384.21723387830775Q740.2678471503782 386.88390054497444 740.1466350291662 390.0960217570956L740.1466350291662 390.0960217570956ZM845.8436047261358 391.3687490298229L845.8436047261358 424.39905206012594Q845.8436047261358 426.0960217570956 846.1466350291662 428.70208236315625Q846.4799683624994 431.3081429692169 847.6314835140146 433.8232944843684Q848.8133016958327 436.3081429692168 851.1163319988631 438.12632478739863Q853.3890592715903 439.9445066055805 857.3284532109843 439.9445066055805L857.3284532109843 439.9445066055805Q862.025422907954 439.9445066055805 864.6920895746207 438.88390054497444Q867.3587562412873 437.8232944843683 868.6314835140146 435.9445066055805Q869.9042107867419 434.0960217570956 870.2375441200752 431.5808702419441Q870.5405744231055 429.0657187267926 870.5405744231055 426.3081429692169L870.5405744231055 426.3081429692169Q870.5405744231055 424.91420357527744 871.025422907954 423.1566278177017Q871.5102713928025 421.39905206012594 873.3284532109843 419.8535975146714Q875.1163319988631 418.3081429692169 878.6920895746207 417.3081429692169Q882.2678471503782 416.2778399389138 888.4496653321964 416.2778399389138L888.4496653321964 416.2778399389138Q894.0860289685601 416.2778399389138 897.1769380594692 417.5808702419441Q900.2678471503782 418.8535975146714 901.7223926049237 420.6111732722472Q903.1466350291661 422.3687490298229 903.3587562412873 424.21723387830775Q903.5708774534086 426.0960217570956 903.5708774534086 427.1566278177017L903.5708774534086 427.1566278177017Q903.5708774534086 433.9748096358835 901.5102713928025 439.1566278177017Q899.4193623018934 444.3081429692168 895.9042107867418 448.0960217570956Q892.3890592715903 451.8839005449744 887.8133016958328 454.429355090429Q883.2375441200752 456.9748096358835 878.0557259382571 458.489961151035Q872.9042107867418 459.9748096358835 867.5708774534086 460.61117327224713Q862.2375441200752 461.24753690861075 857.3284532109843 461.24753690861075L857.3284532109843 461.24753690861075Q848.934513817045 461.24753690861075 841.025422907954 459.0051126661865Q833.1466350291662 456.7626884237623 827.025422907954 451.9748096358835Q820.9042107867419 447.18693084800475 817.1769380594692 439.6717793328532Q813.4496653321964 432.1566278177017 813.4496653321964 421.61117327224713L813.4496653321964 421.61117327224713L813.4496653321964 396.70208236315625Q813.4496653321964 386.5808702419441 815.8436047261358 379.55056721164107Q818.2375441200752 372.489961151035 822.0860289685601 367.8232944843684Q825.9042107867419 363.12632478739863 830.6920895746207 360.52026418133806Q835.5102713928025 357.91420357527744 840.3890592715904 356.6414763025502Q845.2981501806812 355.3384459995199 849.7223926049237 355.03541569648957Q854.1466350291662 354.70208236315625 857.3284532109843 354.70208236315625L857.3284532109843 354.70208236315625Q866.8133016958328 354.70208236315625 873.9042107867418 356.3081429692168Q880.995119877651 357.91420357527744 886.1163319988631 360.5808702419441Q891.2072410897722 363.24753690861075 894.5708774534086 366.70208236315625Q897.934513817045 370.1566278177017 899.8436047261358 374.00511266618656Q901.7526956352267 377.8232944843684 902.5708774534086 381.6717793328532Q903.3587562412873 385.489961151035 903.3587562412873 388.7929914540653L903.3587562412873 388.7929914540653Q903.3587562412873 390.52026418133806 903.1466350291661 392.7929914540653Q902.934513817045 395.0960217570956 901.5102713928025 397.1566278177017Q900.0557259382571 399.24753690861075 896.964816847348 400.73238539345925Q893.8739077564388 402.21723387830775 888.2375441200752 402.21723387830775L888.2375441200752 402.21723387830775Q886.2072410897722 402.21723387830775 883.1769380594692 402.0657187267926Q880.1466350291661 401.91420357527744 877.2678471503782 400.9445066055805Q874.3890592715904 400.0051126661865 872.3587562412873 397.9748096358835Q870.3284532109843 395.9445066055805 870.3284532109843 392.21723387830775L870.3284532109843 392.21723387830775Q870.3284532109843 389.6414763025502 870.055725938257 387.24753690861075Q869.8133016958327 384.8535975146714 868.5102713928025 383.0657187267926Q867.2375441200752 381.24753690861075 864.6314835140146 380.12632478739863Q862.025422907954 379.0051126661865 857.3284532109843 379.0051126661865L857.3284532109843 379.0051126661865Q853.3890592715903 379.0051126661865 851.1163319988631 380.2778399389138Q848.8133016958327 381.55056721164107 847.6314835140146 383.489961151035Q846.4799683624994 385.39905206012594 846.1466350291662 387.52026418133806Q845.8436047261358 389.6414763025502 845.8436047261358 391.3687490298229L845.8436047261358 391.3687490298229ZM1008.1769380594692 379.0051126661865L1008.1769380594692 437.1566278177017Q1008.1769380594692 441.6414763025502 1007.8739077564388 445.9748096358835Q1007.5405744231056 450.2778399389138 1005.964816847348 453.67177933285325Q1004.3587562412873 457.0960217570956 1001.1466350291661 459.1566278177017Q997.964816847348 461.24753690861075 992.2072410897722 461.24753690861075L992.2072410897722 461.24753690861075Q986.3587562412873 461.24753690861075 983.0557259382571 459.2778399389138Q979.7526956352267 457.3081429692169 978.1466350291661 454.489961151035Q976.5405744231055 451.67177933285325 976.1769380594692 448.5808702419441Q975.8133016958328 445.489961151035 975.8133016958328 443.3384459995199L975.8133016958328 443.3384459995199Q974.8436047261358 446.429355090429 973.0860289685601 449.6414763025502Q971.3284532109843 452.8232944843684 968.5708774534086 455.39905206012594Q965.7829986655297 457.9445066055805 961.9042107867418 459.61117327224713Q958.025422907954 461.24753690861075 952.7829986655297 461.24753690861075L952.7829986655297 461.24753690861075Q946.934513817045 461.24753690861075 941.0860289685601 459.3384459995199Q935.2072410897722 457.3990520601259 930.5405744231056 452.9445066055805Q925.8436047261358 448.459658120732 922.9042107867418 441.27783993891376Q919.995119877651 434.0960217570956 919.995119877651 423.52026418133806L919.995119877651 423.52026418133806L919.995119877651 392.6414763025502Q919.995119877651 381.9748096358835 922.9042107867418 374.7929914540653Q925.8436047261358 367.61117327224713 930.5405744231056 363.18693084800475Q935.2072410897722 358.7626884237623 941.0860289685601 356.8535975146714Q946.934513817045 354.91420357527744 952.7829986655297 354.91420357527744L952.7829986655297 354.91420357527744Q958.025422907954 354.91420357527744 961.9042107867418 356.52026418133806Q965.7829986655297 358.12632478739863 968.5708774534086 360.6717793328532Q971.3284532109843 363.24753690861075 973.0860289685601 366.42935509042894Q974.8436047261358 369.6414763025502 975.8133016958328 372.8232944843684L975.8133016958328 372.8232944843684Q975.8133016958328 367.489961151035 977.2981501806813 363.9748096358835Q978.7829986655297 360.459658120732 981.1466350291661 358.39905206012594Q983.4799683624994 356.3081429692168 986.4193623018934 355.52026418133806Q989.3284532109843 354.70208236315625 992.2072410897722 354.70208236315625L992.2072410897722 354.70208236315625Q997.5405744231055 354.70208236315625 1000.7223926049237 356.7929914540653Q1003.934513817045 358.8535975146714 1005.5708774534086 362.21723387830775Q1007.2375441200752 365.5808702419441 1007.7223926049237 370.00511266618656Q1008.1769380594692 374.42935509042894 1008.1769380594692 379.0051126661865L1008.1769380594692 379.0051126661865ZM952.7829986655297 394.9748096358835L952.7829986655297 420.7626884237623Q952.7829986655297 423.6414763025502 952.995119877651 426.39905206012594Q953.2072410897722 429.18693084800475 954.1769380594692 431.42935509042894Q955.1466350291661 433.6414763025502 956.995119877651 434.9748096358835Q958.8739077564388 436.3081429692168 962.1769380594692 436.3081429692168L962.1769380594692 436.3081429692168Q966.3284532109843 436.3081429692168 968.934513817045 434.459658120732Q971.5405744231055 432.5808702419441 973.025422907954 428.70208236315625Q974.5405744231056 424.8232944843684 975.1163319988631 418.91420357527744Q975.6920895746207 412.9748096358835 975.8133016958328 404.7929914540653L975.8133016958328 404.7929914540653Q975.8133016958328 401.489961151035 975.2072410897722 397.1566278177017Q974.6314835140146 392.8535975146714 973.1466350291661 389.0051126661865Q971.6617865443176 385.18693084800475 968.995119877651 382.52026418133806Q966.3284532109843 379.8535975146714 962.1769380594692 379.8535975146714L962.1769380594692 379.8535975146714Q958.8739077564388 379.8535975146714 956.995119877651 381.1869308480047Q955.1466350291661 382.52026418133806 954.1769380594692 384.6414763025502Q953.2072410897722 386.7929914540653 952.995119877651 389.489961151035Q952.7829986655297 392.21723387830775 952.7829986655297 394.9748096358835L952.7829986655297 394.9748096358835ZM1041.2072410897722 354.70208236315625L1047.1769380594692 354.70208236315625L1047.1769380594692 335.9748096358835Q1047.1769380594692 331.489961151035 1047.6617865443177 327.21723387830775Q1048.1466350291662 322.9748096358835 1049.843604726136 319.61117327224713Q1051.5405744231057 316.24753690861075 1054.7526956352267 314.18693084800475Q1057.934513817045 312.0960217570956 1063.3890592715904 312.0960217570956L1063.3890592715904 312.0960217570956Q1068.6920895746207 312.0960217570956 1071.904210786742 314.18693084800475Q1075.0860289685602 316.24753690861075 1076.7526956352267 319.61117327224713Q1078.3890592715902 322.9748096358835 1078.8739077564387 327.21723387830775Q1079.3587562412872 331.489961151035 1079.3587562412872 335.9748096358835L1079.3587562412872 335.9748096358835L1079.3587562412872 354.70208236315625L1088.08602896856 354.70208236315625Q1090.8739077564387 354.70208236315625 1093.6314835140147 354.9748096358835Q1096.3890592715902 355.2475369086108 1098.5708774534085 356.52026418133806Q1100.7829986655297 357.7929914540653 1102.08602896856 360.3687490298229Q1103.4193623018934 362.91420357527744 1103.4193623018934 367.489961151035L1103.4193623018934 367.489961151035Q1103.4193623018934 371.8535975146714 1102.08602896856 374.42935509042894Q1100.7829986655297 376.9748096358835 1098.5708774534085 378.24753690861075Q1096.3890592715902 379.55056721164107 1093.6314835140147 379.91420357527744Q1090.8739077564387 380.2778399389138 1088.08602896856 380.2778399389138L1088.08602896856 380.2778399389138L1079.3587562412872 380.2778399389138L1079.3587562412872 417.5808702419441Q1079.3587562412872 419.70208236315625 1079.5102713928025 422.0960217570956Q1079.6617865443177 424.489961151035 1080.6314835140147 426.52026418133806Q1081.6011804837117 428.55056721164107 1083.5102713928025 429.88390054497444Q1085.4193623018934 431.21723387830775 1088.934513817045 431.21723387830775L1088.934513817045 431.21723387830775Q1092.7829986655297 431.21723387830775 1095.5102713928025 431.7929914540653Q1098.2072410897722 432.3687490298229 1099.964816847348 433.8535975146714Q1101.7223926049237 435.3687490298229 1102.5708774534085 438.0354156964896Q1103.4193623018934 440.67177933285325 1103.4193623018934 444.8535975146714L1103.4193623018934 444.8535975146714Q1103.4193623018934 449.0960217570956 1101.4496653321964 452.18693084800475Q1099.4799683624994 455.2778399389138 1096.1769380594692 457.3081429692169Q1092.8739077564387 459.3384459995199 1088.5102713928025 460.2778399389138Q1084.1466350291662 461.24753690861075 1079.3587562412872 461.24753690861075L1079.3587562412872 461.24753690861075Q1071.7829986655297 461.24753690861075 1066.4193623018934 459.6414763025502Q1061.025422907954 458.0657187267926 1057.4496653321964 455.12632478739863Q1053.9042107867417 452.18693084800475 1051.8133016958327 448.0960217570956Q1049.7526956352267 443.9748096358835 1048.7223926049237 438.88390054497444Q1047.7223926049237 433.7626884237623 1047.4496653321964 427.8535975146714Q1047.1769380594692 421.9445066055805 1047.1769380594692 415.429355090429L1047.1769380594692 415.429355090429L1047.1769380594692 380.2778399389138L1041.2072410897722 380.2778399389138Q1038.4496653321964 380.2778399389138 1035.7223926049237 379.91420357527744Q1033.025422907954 379.55056721164107 1030.8739077564387 378.24753690861075Q1028.7526956352267 376.9748096358835 1027.4193623018934 374.42935509042894Q1026.0860289685602 371.8535975146714 1026.0860289685602 367.489961151035L1026.0860289685602 367.489961151035Q1026.0860289685602 362.91420357527744 1027.4193623018934 360.3687490298229Q1028.7526956352267 357.7929914540653 1030.8739077564387 356.52026418133806Q1033.025422907954 355.2475369086108 1035.7223926049237 354.9748096358835Q1038.4496653321964 354.70208236315625 1041.2072410897722 354.70208236315625L1041.2072410897722 354.70208236315625ZM1128.7829986655297 437.3687490298229L1128.7829986655297 378.5808702419441Q1128.7829986655297 374.0960217570956 1129.2678471503782 369.8535975146714Q1129.7526956352267 365.5808702419441 1131.4496653321962 362.21723387830775Q1133.1466350291662 358.8535975146714 1136.3587562412872 356.7929914540653Q1139.5405744231057 354.70208236315625 1144.995119877651 354.70208236315625L1144.995119877651 354.70208236315625Q1150.4193623018932 354.70208236315625 1153.6011804837117 356.7929914540653Q1156.8133016958327 358.8535975146714 1158.5102713928027 362.21723387830775Q1160.2072410897722 365.5808702419441 1160.6920895746207 369.8535975146714Q1161.1769380594692 374.0960217570956 1161.1769380594692 378.5808702419441L1161.1769380594692 378.5808702419441L1161.1769380594692 437.3687490298229Q1161.1769380594692 441.8535975146714 1160.6920895746207 446.18693084800475Q1160.2072410897722 450.489961151035 1158.5102713928027 453.8535975146714Q1156.8133016958327 457.1869308480047 1153.6011804837117 459.21723387830775Q1150.4193623018932 461.24753690861075 1144.995119877651 461.24753690861075L1144.995119877651 461.24753690861075Q1139.5405744231057 461.24753690861075 1136.3587562412872 459.21723387830775Q1133.1466350291662 457.1869308480047 1131.4496653321962 453.8535975146714Q1129.7526956352267 450.489961151035 1129.2678471503782 446.18693084800475Q1128.7829986655297 441.8535975146714 1128.7829986655297 437.3687490298229L1128.7829986655297 437.3687490298229ZM1161.3890592715902 328.2778399389138L1161.3890592715902 328.2778399389138Q1161.3890592715902 336.489961151035 1157.1163319988632 340.489961151035Q1152.8739077564387 344.489961151035 1145.2072410897722 344.489961151035L1145.2072410897722 344.489961151035Q1137.5102713928025 344.489961151035 1133.2678471503782 340.489961151035Q1128.995119877651 336.489961151035 1128.995119877651 328.2778399389138L1128.995119877651 328.2778399389138Q1128.995119877651 319.7626884237623 1133.2678471503782 315.9445066055805Q1137.5102713928025 312.0960217570956 1145.2072410897722 312.0960217570956L1145.2072410897722 312.0960217570956Q1153.3890592715902 312.0960217570956 1157.3890592715902 315.9445066055805Q1161.3890592715902 319.7626884237623 1161.3890592715902 328.2778399389138ZM1187.3890592715902 421.18693084800475L1187.3890592715902 394.7626884237623Q1187.3890592715902 384.9748096358835 1190.0557259382572 378.1566278177017Q1192.7223926049237 371.3384459995199 1196.904210786742 366.7626884237623Q1201.1163319988632 362.1566278177017 1206.2981501806812 359.61117327224713Q1211.4496653321962 357.06571872679257 1216.4799683624994 355.7929914540653Q1221.4799683624994 354.489961151035 1225.78299866553 354.18693084800475Q1230.116331998863 353.8535975146714 1232.5405744231055 353.8535975146714L1232.5405744231055 353.8535975146714Q1234.995119877651 353.8535975146714 1239.2678471503784 354.18693084800475Q1243.5102713928025 354.489961151035 1248.3587562412874 355.7929914540653Q1253.207241089772 357.06571872679257 1258.1769380594692 359.61117327224713Q1263.116331998863 362.1566278177017 1267.116331998863 366.7626884237623Q1271.116331998863 371.3384459995199 1273.6617865443175 378.1566278177017Q1276.2375441200752 384.9748096358835 1276.2375441200752 394.7626884237623L1276.2375441200752 394.7626884237623L1276.2375441200752 421.18693084800475Q1276.2375441200752 431.0051126661865 1273.6617865443175 437.8232944843683Q1271.116331998863 444.64147630255013 1267.116331998863 449.21723387830775Q1263.116331998863 453.7929914540653 1258.1769380594692 456.3384459995199Q1253.207241089772 458.91420357527744 1248.3587562412874 460.18693084800475Q1243.5102713928025 461.459658120732 1239.2678471503784 461.7929914540653Q1234.995119877651 462.0960217570956 1232.5405744231055 462.0960217570956L1232.5405744231055 462.0960217570956Q1230.116331998863 462.0960217570956 1225.78299866553 461.7929914540653Q1221.4799683624994 461.459658120732 1216.4799683624994 460.18693084800475Q1211.4496653321962 458.91420357527744 1206.2981501806812 456.3384459995199Q1201.1163319988632 453.7929914540653 1196.904210786742 449.21723387830775Q1192.7223926049237 444.64147630255013 1190.0557259382572 437.8232944843683Q1187.3890592715902 431.0051126661865 1187.3890592715902 421.18693084800475L1187.3890592715902 421.18693084800475ZM1220.2072410897722 390.0960217570956L1220.2072410897722 428.6414763025502Q1220.2981501806812 431.73238539345925 1221.6920895746207 434.0960217570956L1221.6920895746207 434.0960217570956Q1222.843604726136 436.21723387830775 1225.3587562412874 437.8535975146714Q1227.873907756439 439.52026418133806 1232.5405744231055 439.52026418133806L1232.5405744231055 439.52026418133806Q1237.025422907954 439.52026418133806 1239.4193623018934 437.8535975146714Q1241.813301695833 436.21723387830775 1242.995119877651 434.0960217570956L1242.995119877651 434.0960217570956Q1244.2678471503784 431.73238539345925 1244.4799683624994 428.6414763025502L1244.4799683624994 428.6414763025502L1244.4799683624994 390.0960217570956Q1244.2678471503784 386.88390054497444 1242.995119877651 384.21723387830775L1242.995119877651 384.21723387830775Q1241.813301695833 382.0960217570956 1239.4193623018934 380.21723387830775Q1237.025422907954 378.3687490298229 1232.5405744231055 378.3687490298229L1232.5405744231055 378.3687490298229Q1227.873907756439 378.3687490298229 1225.3587562412874 380.21723387830775Q1222.843604726136 382.0960217570956 1221.6920895746207 384.21723387830775L1221.6920895746207 384.21723387830775Q1220.2981501806812 386.88390054497444 1220.2072410897722 390.0960217570956L1220.2072410897722 390.0960217570956ZM1387.4496653321964 392.6414763025502L1387.4496653321964 436.9445066055805Q1387.4496653321964 441.5505672116411 1386.934513817045 445.91420357527744Q1386.3890592715904 450.2778399389138 1384.6314835140145 453.67177933285325Q1382.873907756439 457.0960217570956 1379.6314835140145 459.1566278177017Q1376.3587562412874 461.24753690861075 1370.843604726136 461.24753690861075L1370.843604726136 461.24753690861075Q1365.3890592715904 461.24753690861075 1362.207241089772 459.1566278177017Q1358.995119877651 457.0960217570956 1357.2981501806814 453.67177933285325Q1355.6011804837115 450.2778399389138 1355.116331998863 445.91420357527744Q1354.6314835140145 441.5505672116411 1354.6314835140145 436.9445066055805L1354.6314835140145 436.9445066055805L1354.6314835140145 395.39905206012594Q1354.6314835140145 392.429355090429 1354.3587562412874 389.55056721164107Q1354.116331998863 386.6717793328532 1353.146635029166 384.489961151035Q1352.176938059469 382.3081429692169 1350.3284532109844 380.9748096358835Q1348.4496653321964 379.6414763025502 1345.2678471503782 379.6414763025502L1345.2678471503782 379.6414763025502Q1340.904210786742 379.6414763025502 1338.2375441200752 382.52026418133806Q1335.5708774534085 385.39905206012594 1334.025422907954 390.39905206012594Q1332.4799683624994 395.39905206012594 1331.934513817045 402.18693084800475Q1331.4193623018934 408.9445066055805 1331.4193623018934 416.70208236315625L1331.4193623018934 416.70208236315625L1331.4193623018934 436.9445066055805Q1331.4193623018934 441.5505672116411 1330.873907756439 445.91420357527744Q1330.3587562412874 450.2778399389138 1328.6011804837115 453.67177933285325Q1326.843604726136 457.0960217570956 1323.5708774534085 459.1566278177017Q1320.3284532109844 461.24753690861075 1314.7829986655297 461.24753690861075L1314.7829986655297 461.24753690861075Q1309.3587562412874 461.24753690861075 1306.176938059469 459.1566278177017Q1302.964816847348 457.0960217570956 1301.2678471503784 453.67177933285325Q1299.5708774534085 450.2778399389138 1299.08602896856 445.91420357527744Q1298.6011804837115 441.5505672116411 1298.6011804837115 436.9445066055805L1298.6011804837115 436.9445066055805L1298.6011804837115 378.7929914540653Q1298.6011804837115 374.21723387830775 1298.934513817045 369.88390054497444Q1299.2375441200752 365.5808702419441 1300.843604726136 362.21723387830775Q1302.4496653321964 358.8535975146714 1305.6920895746205 356.7929914540653Q1308.934513817045 354.70208236315625 1314.7829986655297 354.70208236315625L1314.7829986655297 354.70208236315625Q1320.6617865443175 354.70208236315625 1323.964816847348 356.6717793328532Q1327.2678471503782 358.6414763025502 1328.904210786742 361.429355090429Q1330.5708774534085 364.18693084800475 1330.995119877651 367.2778399389138Q1331.4193623018934 370.36874902982294 1331.4193623018934 372.61117327224713L1331.4193623018934 372.61117327224713Q1332.2678471503784 369.52026418133806 1334.08602896856 366.3384459995199Q1335.904210786742 363.12632478739863 1338.7223926049235 360.5808702419441Q1341.5405744231055 358.00511266618656 1345.4799683624994 356.3687490298229Q1349.4193623018934 354.70208236315625 1354.6314835140145 354.70208236315625L1354.6314835140145 354.70208236315625Q1360.5102713928025 354.70208236315625 1366.3587562412874 356.6414763025502Q1372.2072410897722 358.55056721164107 1376.904210786742 363.03541569648957Q1381.6011804837115 367.489961151035 1384.5102713928025 374.73238539345925Q1387.4496653321964 381.9748096358835 1387.4496653321964 392.6414763025502L1387.4496653321964 392.6414763025502Z " fill="#f7f7f9" transform="matrix(0.6306535055368071,0,0,0.6306535055368071,0,55.87655183153643)"/></g></svg>